<svg width="79" height="26" viewBox="0 0 79 26" fill="none" xmlns="http://www.w3.org/2000/svg">
<path d="M8 3.5H9.5L11.4577 1.05289L9.5 0H7.5L5.5 0.5L4 2L2.5 4L3 7L4 9L6 10.5V12H0V16H8L1.5 22L4 25L12 18.5L20 24.5L22.5 21.5L15.5 16V11.5H11V10.5L13 9L13.5 7.5L14 5.5L13.5 3L12.5 2L10 4.5L10.5 6.5L9.5 7L8 7.5L7 7L6.5 6V4.5L8 3.5Z" fill="white"/>
<path d="M16.5 16V0H21V8.5H24V12.5H21V16H16.5Z" fill="white"/>
<path d="M24 6V1.5H38V17.5H33V6H24Z" fill="white"/>
<path d="M26.5 19.5V10.5H31.5V19.5H38.5V23.5H23.5V19.5H26.5Z" fill="white"/>
<path d="M41 5.5V1.5H51L52.5 5L47 10.5H51L52.5 14L47 19.5H54V0H59V25.5H54V24H42L40.5 20.5L46.5 14.5H42L40.5 11.5L46 5.5H41Z" fill="white"/>
<path d="M62 4.5V0H78V4H73L78 6.5L77 9.5L70 7.5L63 10L62 7L66.5 4.5H62Z" fill="white"/>
<path d="M61 14.5V10.5H79V14.5H61Z" fill="white"/>
<path d="M69.5 19V17H62V25H69.5V22.5L68 21V20L69.5 19Z" fill="white"/>
<path d="M70.5 19V17H77.5V25H70.5L71 22.5L72 22V20L70.5 19Z" fill="white"/>
</svg>
